<svg width="430" height="430" viewBox="0 0 430 430" fill="none" xmlns="http://www.w3.org/2000/svg">
<path fill-rule="evenodd" clip-rule="evenodd" d="M128.94 241.69C128.94 238.376 131.626 235.69 134.94 235.69H295.06C298.374 235.69 301.06 238.376 301.06 241.69C301.06 245.004 298.374 247.69 295.06 247.69H134.94C131.626 247.69 128.94 245.004 128.94 241.69Z" fill="#ffffff"/>
<path fill-rule="evenodd" clip-rule="evenodd" d="M128.94 295.06C128.94 291.746 131.626 289.06 134.94 289.06H295.06C298.374 289.06 301.06 291.746 301.06 295.06C301.06 298.374 298.374 301.06 295.06 301.06H134.94C131.626 301.06 128.94 298.374 128.94 295.06Z" fill="#ffffff"/>
<path fill-rule="evenodd" clip-rule="evenodd" d="M128.94 348.43C128.94 345.116 131.626 342.43 134.94 342.43H295.06C298.374 342.43 301.06 345.116 301.06 348.43C301.06 351.744 298.374 354.43 295.06 354.43H134.94C131.626 354.43 128.94 351.744 128.94 348.43Z" fill="#ffffff"/>
<path fill-rule="evenodd" clip-rule="evenodd" d="M75.5701 28.1899C75.5701 24.8762 78.2564 22.1899 81.5701 22.1899H241.69C243.281 22.1899 244.808 22.8222 245.933 23.9475L352.673 130.698C353.798 131.823 354.43 133.349 354.43 134.94V401.33C354.43 404.644 351.744 407.33 348.43 407.33H81.5701C78.2564 407.33 75.5701 404.644 75.5701 401.33V28.1899ZM87.5701 34.1899V395.33H342.43V137.425L239.205 34.1899H87.5701Z" fill="#ffffff"/>
<path fill-rule="evenodd" clip-rule="evenodd" d="M241.69 22.1899C245.004 22.1899 247.69 24.8762 247.69 28.1899V128.94H348.43C351.744 128.94 354.43 131.626 354.43 134.94C354.43 138.254 351.744 140.94 348.43 140.94H241.69C238.376 140.94 235.69 138.254 235.69 134.94V28.1899C235.69 24.8762 238.376 22.1899 241.69 22.1899Z" fill="#ffffff"/>
</svg>
