<?xml version="1.0" encoding="utf-8"?>
<!-- Generator: Adobe Illustrator 24.1.2, SVG Export Plug-In . SVG Version: 6.00 Build 0)  -->
<svg version="1.1" id="Warstwa_3" xmlns="http://www.w3.org/2000/svg" xmlns:xlink="http://www.w3.org/1999/xlink" x="0px" y="0px"
	 viewBox="0 0 430 430" style="enable-background:new 0 0 430 430;" xml:space="preserve">
<style type="text/css">
	.st0{fill:#ffffff;}
	.st1{fill:#ffffff;}
	.st2{fill:none;stroke:#ffffff;stroke-width:12.95;stroke-linecap:round;stroke-linejoin:round;stroke-miterlimit:14.8;}
	.st3{fill:none;}
</style>
<g>
	<path class="st1" d="M340.79,360.23h-66.61c-1.72,0-3.36-0.68-4.58-1.9c-1.21-1.21-1.9-2.86-1.9-4.58l0.03-240.46
		c0-3.58,2.9-6.47,6.48-6.47h66.6c1.72,0,3.36,0.68,4.58,1.9c1.21,1.21,1.9,2.86,1.9,4.58l-0.01,240.46
		C347.26,357.33,344.36,360.23,340.79,360.23z M280.65,347.27h53.66l0.01-227.51h-53.65L280.65,347.27z M248.29,360.23h-66.61
		c-1.72,0-3.36-0.68-4.58-1.9s-1.9-2.86-1.9-4.58l0.03-166.46c0-3.58,2.9-6.47,6.48-6.47h66.6c1.72,0,3.36,0.68,4.58,1.9
		c1.21,1.21,1.9,2.86,1.9,4.58l-0.01,166.46C254.76,357.33,251.86,360.23,248.29,360.23z M188.15,347.27h53.66l0.01-153.51h-53.65
		L188.15,347.27z M155.79,360.23H89.17c-1.72,0-3.36-0.68-4.58-1.9s-1.9-2.86-1.9-4.58l0.03-92.46c0-3.58,2.9-6.47,6.48-6.47h66.6
		c1.72,0,3.36,0.68,4.58,1.9s1.9,2.86,1.9,4.58l-0.01,92.46C162.26,357.33,159.36,360.23,155.79,360.23z M95.65,347.27h53.66
		l0.01-79.51H95.67L95.65,347.27z"/>
	<path class="st0" d="M374.07,360.23H55.93c-3.58,0-6.48-2.9-6.48-6.48V76.25c0-3.58,2.9-6.48,6.48-6.48s6.48,2.9,6.48,6.48v271.02
		h311.67c3.58,0,6.48,2.9,6.48,6.48S377.65,360.23,374.07,360.23z"/>
</g>
</svg>
