<?xml version="1.0" encoding="utf-8"?>
<!-- Generator: Adobe Illustrator 24.1.2, SVG Export Plug-In . SVG Version: 6.00 Build 0)  -->
<svg version="1.1" id="Warstwa_1" xmlns="http://www.w3.org/2000/svg" xmlns:xlink="http://www.w3.org/1999/xlink" x="0px" y="0px"
	 viewBox="0 0 430 430" style="enable-background:new 0 0 430 430;" xml:space="preserve">
<style type="text/css">
	.st0{fill:#ffffff;}
	.st1{fill:#ffffff;}
	.st2{fill-opacity:0;}
	.st3{fill:none;}
</style>
<g>
	<path class="st0" d="M379.33,210.9h-0.12c-1.63,0-3.2-0.62-4.39-1.72l-67.54-62.62c-2.62-2.43-2.77-6.52-0.35-9.13
		c2.43-2.62,6.52-2.77,9.13-0.35l66.85,61.97c1.74,1.16,2.88,3.14,2.88,5.38C385.79,208.01,382.9,210.9,379.33,210.9z M249.49,90.65
		c-1.57,0-3.15-0.57-4.39-1.72c-19.33-17.91-32.91-30.51-32.91-30.51c-1.75-1.62-2.46-4.07-1.86-6.38s2.43-4.09,4.75-4.65l1.21-0.29
		c3.44-0.82,6.9,1.28,7.77,4.7c5.06,4.69,15.97,14.81,29.83,27.65c2.62,2.43,2.77,6.52,0.35,9.13
		C252.96,89.95,251.23,90.65,249.49,90.65z"/>
	<path class="st0" d="M346.92,383.08c-3.34,0-6.17-2.57-6.44-5.95c-0.11-1.4,0.23-2.73,0.9-3.84v-168.9c0-3.57,2.89-6.46,6.46-6.46
		s6.46,2.89,6.46,6.46v172.16c0,3.37-2.59,6.17-5.95,6.44l-0.92,0.07C347.26,383.07,347.09,383.08,346.92,383.08z"/>
	<path class="st1" d="M317.87,140.19c-3.56,0-6.46-2.88-6.46-6.45l-0.12-56.97c-2.73-0.8-4.69-3.34-4.64-6.32
		c0.07-3.57,3.04-6.44,6.58-6.34l4.63,0.08c3.52,0.06,6.34,2.93,6.34,6.45l0.13,63.07c0.01,3.57-2.88,6.47-6.45,6.48
		C317.88,140.19,317.88,140.19,317.87,140.19z"/>
	<path class="st1" d="M317.56,150.81c-3.57,0-6.46-2.89-6.46-6.46V76.3h-34.21v24.09c0,3.57-2.89,6.46-6.46,6.46
		s-6.46-2.89-6.46-6.46V69.84c0-3.57,2.89-6.46,6.46-6.46h47.14c3.57,0,6.46,2.89,6.46,6.46v74.51
		C324.03,147.92,321.13,150.81,317.56,150.81z"/>
	<path class="st1" d="M257.44,383.06c-3.57,0-6.46-2.89-6.46-6.46V244.83h-70.71v131.76c0,3.57-2.89,6.46-6.46,6.46
		s-6.46-2.89-6.46-6.46V238.37c0-3.57,2.89-6.46,6.46-6.46h83.64c3.57,0,6.46,2.89,6.46,6.46v138.23
		C263.9,380.16,261.01,383.06,257.44,383.06z"/>
	<path class="st0" d="M50.67,210.9c-1.75,0-3.5-0.71-4.77-2.1c-2.41-2.63-2.22-6.72,0.41-9.13L211.26,48.9
		c2.48-2.27,6.29-2.26,8.75,0.03L382.64,199.7c2.62,2.43,2.77,6.52,0.35,9.13c-2.43,2.62-6.51,2.77-9.13,0.35L215.59,62.45
		L55.03,209.21C53.79,210.34,52.23,210.9,50.67,210.9z"/>
	<path class="st0" d="M347.9,383.06H81.63c-3.57,0-6.46-2.89-6.46-6.46V180.28c0-3.57,2.89-6.46,6.46-6.46s6.46,2.89,6.46,6.46
		v189.85h253.34V186.09c0-3.57,2.89-6.46,6.46-6.46s6.46,2.89,6.46,6.46v190.5C354.36,380.16,351.47,383.06,347.9,383.06z"/>
</g>
</svg>
