<?xml version="1.0" encoding="utf-8"?>
<!-- Generator: Adobe Illustrator 24.1.2, SVG Export Plug-In . SVG Version: 6.00 Build 0)  -->
<svg version="1.1" id="Warstwa_3" xmlns="http://www.w3.org/2000/svg" xmlns:xlink="http://www.w3.org/1999/xlink" x="0px" y="0px"
	 viewBox="0 0 430 430" style="enable-background:new 0 0 430 430;" xml:space="preserve">
<style type="text/css">
	.st0{fill:#000000;}
	.st1{fill:#000000;}
	.st2{fill:none;stroke:#000000;stroke-width:12.25;stroke-miterlimit:14;}
	.st3{fill-opacity:0;}
	.st4{fill:#131432;}
	.st5{fill:none;}
</style>
<g>
	<path class="st1" d="M215,386.86c-29.44,0-56.92-18.25-77.35-51.4c-19.9-32.27-30.86-75.05-30.86-120.46s10.96-88.2,30.86-120.47
		c20.44-33.14,47.91-51.4,77.35-51.4c3.21,0,5.81,2.6,5.81,5.81s-2.6,5.81-5.81,5.81c-25.26,0-49.22,16.29-67.46,45.87
		c-18.78,30.46-29.13,71.07-29.13,114.36c0,43.29,10.34,83.91,29.13,114.36c18.24,29.58,42.2,45.87,67.46,45.87
		c3.21,0,5.81,2.6,5.81,5.81S218.21,386.86,215,386.86z"/>
	<path class="st1" d="M215,386.86c-0.02,0-0.04,0-0.06,0c-3.21-0.03-5.79-2.66-5.76-5.87c0.24-24.96,0.55-69.32,0.55-166
		c0-72.64-0.18-102.21-0.38-136.44c-0.05-9.15-0.11-18.71-0.17-29.58c-0.02-3.21,2.57-5.83,5.78-5.84c0.01,0,0.02,0,0.03,0
		c3.2,0,5.79,2.58,5.81,5.78c0.06,10.86,0.11,20.42,0.17,29.57c0.21,34.25,0.38,63.84,0.38,136.51c0,96.72-0.31,141.12-0.55,166.1
		C220.78,384.29,218.18,386.86,215,386.86z"/>
	<path class="st1" d="M215,386.86c-3.21,0-5.81-2.6-5.81-5.81s2.6-5.81,5.81-5.81c55.09,0,99.91-71.88,99.91-160.24
		c0-88.36-44.82-160.24-99.91-160.24c-3.21,0-5.81-2.6-5.81-5.81s2.6-5.81,5.81-5.81c30.29,0,58.58,18.23,79.66,51.33
		c20.55,32.28,31.87,75.09,31.87,120.54s-11.32,88.25-31.87,120.54C273.58,368.63,245.29,386.86,215,386.86z"/>
	<path class="st1" d="M381.05,220.81H48.95c-3.21,0-5.81-2.6-5.81-5.81s2.6-5.81,5.81-5.81h332.1c3.21,0,5.81,2.6,5.81,5.81
		S384.26,220.81,381.05,220.81z"/>
	<path class="st1" d="M215.02,118.43c-40.22,0-79.31-8.86-110.06-24.94c-2.84-1.49-3.94-5-2.46-7.84c1.49-2.84,5-3.94,7.84-2.46
		c29.12,15.23,66.29,23.62,104.67,23.62c38.39,0,75.55-8.39,104.64-23.61c2.84-1.49,6.35-0.39,7.84,2.45
		c1.49,2.84,0.39,6.36-2.45,7.84C294.33,109.57,255.26,118.43,215.02,118.43z"/>
	<path class="st1" d="M322.35,347.47c-0.91,0-1.83-0.21-2.69-0.66c-29.12-15.23-66.29-23.62-104.67-23.62
		c-38.39,0-75.55,8.39-104.64,23.61c-2.85,1.49-6.36,0.39-7.84-2.45c-1.49-2.84-0.39-6.36,2.45-7.84
		c30.72-16.08,69.79-24.94,110.03-24.94c40.22,0,79.31,8.86,110.06,24.94c2.84,1.49,3.94,5,2.46,7.84
		C326.47,346.34,324.45,347.47,322.35,347.47z"/>
	<path class="st0" d="M215,386.86c-94.76,0-171.86-77.1-171.86-171.86S120.24,43.14,215,43.14c94.77,0,171.86,77.1,171.86,171.86
		S309.77,386.86,215,386.86z M215,54.76c-88.36,0-160.24,71.88-160.24,160.24S126.65,375.24,215,375.24
		c88.36,0,160.24-71.88,160.24-160.24S303.36,54.76,215,54.76z"/>
</g>
</svg>
