<svg width="430" height="430" viewBox="0 0 430 430" fill="none" xmlns="http://www.w3.org/2000/svg">
<path fill-rule="evenodd" clip-rule="evenodd" d="M128.94 295.06C128.94 291.746 131.626 289.06 134.94 289.06H295.06C298.374 289.06 301.06 291.746 301.06 295.06C301.06 298.374 298.374 301.06 295.06 301.06H134.94C131.626 301.06 128.94 298.374 128.94 295.06Z" fill="#ffffff"/>
<path fill-rule="evenodd" clip-rule="evenodd" d="M235.69 348.43C235.69 345.116 238.376 342.43 241.69 342.43H295.06C298.374 342.43 301.06 345.116 301.06 348.43C301.06 351.744 298.374 354.43 295.06 354.43H241.69C238.376 354.43 235.69 351.744 235.69 348.43Z" fill="#ffffff"/>
<path fill-rule="evenodd" clip-rule="evenodd" d="M128.94 348.43C128.94 345.116 131.626 342.43 134.94 342.43H215C218.314 342.43 221 345.116 221 348.43C221 351.744 218.314 354.43 215 354.43H134.94C131.626 354.43 128.94 351.744 128.94 348.43Z" fill="#ffffff"/>
<path fill-rule="evenodd" clip-rule="evenodd" d="M214.997 168.74C216.7 168.739 218.323 169.462 219.462 170.729C219.461 170.728 219.461 170.728 219.462 170.729C219.473 170.74 219.583 170.852 219.854 171.05C220.141 171.26 220.538 171.516 221.063 171.811C222.121 172.405 223.505 173.051 225.174 173.726C228.509 175.075 232.585 176.383 236.626 177.539C240.643 178.689 244.508 179.656 247.377 180.338C248.809 180.678 249.986 180.945 250.801 181.127C251.208 181.217 251.525 181.286 251.737 181.332C251.843 181.355 251.924 181.373 251.976 181.384L252.048 181.399C255.18 182.06 257.242 185.064 256.733 188.224L251.533 220.504C251.51 220.652 251.48 220.799 251.445 220.944C249.015 231.116 243.249 240.181 235.066 246.694L235.029 246.724L218.699 259.514C216.527 261.215 213.473 261.215 211.3 259.514L194.97 246.724L194.933 246.695C186.753 240.184 180.987 231.124 178.554 220.956C178.519 220.81 178.49 220.663 178.466 220.514L173.266 188.234C172.757 185.074 174.819 182.07 177.951 181.409C177.951 181.409 177.95 181.409 177.951 181.409L178.023 181.394C178.076 181.383 178.156 181.365 178.262 181.342C178.475 181.297 178.791 181.227 179.199 181.137C180.014 180.955 181.19 180.688 182.622 180.348C185.491 179.666 189.356 178.698 193.373 177.548C197.413 176.391 201.489 175.083 204.824 173.732C206.493 173.057 207.876 172.411 208.934 171.816C209.458 171.52 209.855 171.264 210.142 171.054C210.413 170.855 210.523 170.744 210.534 170.733C210.535 170.732 210.535 170.732 210.534 170.733C211.672 169.465 213.294 168.741 214.997 168.74ZM186.008 191.877L190.276 218.374C192.112 225.843 196.371 232.496 202.388 237.291L215 247.169L227.611 237.292C233.63 232.494 237.889 225.837 239.723 218.365L243.992 191.867C241.079 191.168 237.285 190.21 233.324 189.076C229.102 187.867 224.57 186.426 220.674 184.85C218.727 184.063 216.839 183.202 215.184 182.272C215.124 182.238 215.063 182.204 215.003 182.169C214.941 182.204 214.88 182.239 214.819 182.274C213.163 183.205 211.275 184.067 209.327 184.855C205.43 186.433 200.899 187.875 196.677 189.084C192.714 190.219 188.921 191.178 186.008 191.877Z" fill="#ffffff"/>
<path fill-rule="evenodd" clip-rule="evenodd" d="M75.5698 28.1899C75.5698 24.8762 78.2561 22.1899 81.5698 22.1899H241.69C243.281 22.1899 244.807 22.8222 245.933 23.9475L352.673 130.698C353.798 131.823 354.43 133.349 354.43 134.94V401.33C354.43 404.644 351.744 407.33 348.43 407.33H81.5698C78.2561 407.33 75.5698 404.644 75.5698 401.33V28.1899ZM87.5698 34.1899V395.33H342.43V137.425L239.204 34.1899H87.5698Z" fill="#ffffff"/>
<path fill-rule="evenodd" clip-rule="evenodd" d="M241.69 22.1899C245.004 22.1899 247.69 24.8762 247.69 28.1899V128.94H348.43C351.744 128.94 354.43 131.626 354.43 134.94C354.43 138.254 351.744 140.94 348.43 140.94H241.69C238.376 140.94 235.69 138.254 235.69 134.94V28.1899C235.69 24.8762 238.376 22.1899 241.69 22.1899Z" fill="#ffffff"/>
</svg>
